<?xml version="1.0" encoding="utf-8"?>
<!-- Svg Vector Icons : http://www.onlinewebfonts.com/icon -->
<!DOCTYPE svg PUBLIC "-//W3C//DTD SVG 1.1//EN" "http://www.w3.org/Graphics/SVG/1.1/DTD/svg11.dtd">
<svg version="1.1" xmlns="http://www.w3.org/2000/svg" xmlns:xlink="http://www.w3.org/1999/xlink" x="0px" y="0px" viewBox="0 0 1000 1000" enable-background="new 0 0 1000 1000" xml:space="preserve">
<metadata> Svg Vector Icons : http://www.onlinewebfonts.com/icon </metadata>
<g><path d="M938.1,447.6l-750.9-0.3L532.6,98.9c9.8-9.9,15.2-23,15.2-37c0-14-5.4-27.1-15.2-37c-19.6-19.8-53.8-19.8-73.4,0l-434,437.9c-20.2,20.4-20.2,53.6,0,74.1l434,437.9c9.8,9.9,22.8,15.3,36.7,15.3c13.9,0,26.9-5.5,36.7-15.3c20.2-20.4,20.2-53.6-0.4-74.4l-345-348.1l750.9,0.3c28.6,0,51.9-23.5,51.9-52.4C990,471.1,966.7,447.6,938.1,447.6z"/></g>
</svg>